<?xml version="1.0" encoding="utf-8"?>
<!-- Generator: Adobe Illustrator 23.0.1, SVG Export Plug-In . SVG Version: 6.00 Build 0)  -->
<svg version="1.1"
	 id="Layer_1" xmlns:cc="http://creativecommons.org/ns#" xmlns:dc="http://purl.org/dc/elements/1.1/" xmlns:inkscape="http://www.inkscape.org/namespaces/inkscape" xmlns:rdf="http://www.w3.org/1999/02/22-rdf-syntax-ns#" xmlns:sodipodi="http://sodipodi.sourceforge.net/DTD/sodipodi-0.dtd" xmlns:svg="http://www.w3.org/2000/svg"
	 xmlns="http://www.w3.org/2000/svg" xmlns:xlink="http://www.w3.org/1999/xlink" x="0px" y="0px" width="1920px" height="427.1px"
	 viewBox="0 0 1920 427.1" style="enable-background:new 0 0 1920 427.1;" xml:space="preserve">
<style type="text/css">
	.st0{fill:#233E4C;}
	.st1{fill:#66B1CA;}
	.st2{fill:#97D9EF;}
	.st3{fill:#69A6BC;}
	.st4{fill:#77C6E0;}
</style>
<sodipodi:namedview  bordercolor="#666666" borderopacity="1" gridtolerance="10" guidetolerance="10" id="namedview9" inkscape:current-layer="Layer_1" inkscape:cx="922.21928" inkscape:cy="617.01612" inkscape:pageopacity="0" inkscape:pageshadow="2" inkscape:window-height="1057" inkscape:window-maximized="1" inkscape:window-width="1920" inkscape:window-x="1912" inkscape:window-y="-8" inkscape:zoom="0.41815372" objecttolerance="10" pagecolor="#ffffff" showgrid="false">
	</sodipodi:namedview>
<path id="path4" class="st0" d="M-0.5,91c245.7,132,1037.8,261,1319.9,195c279,66,548.2,123,601.1,108c0,183,0,666.1,0,666.1H-0.5
	V91z"/>
<g id="layer2" inkscape:groupmode="layer" inkscape:label="Layer 1">
	<path id="path4-6" inkscape:connector-curvature="0" class="st1" d="M744.2,199.7c-185-32.8-367.7-77.3-547-133.2h-0.3
		c179.5,56,362.5,100.5,547.7,133.3L744.2,199.7z"/>
	<path id="path6" inkscape:connector-curvature="0" class="st1" d="M929,257.8c-19.6-0.3-39.3-0.7-59-1.3
		c-292.9-8.2-584.3-45.1-870-110.1v47.4c356.4,99.8,731,156.6,1118.2,164.3c30.5,0.6,60.9,0.9,91.3,0.9c45.2,0,90.2-0.7,135.1-2
		C1203.7,330.5,1065.1,297.4,929,257.8z"/>
	<path id="path8" inkscape:connector-curvature="0" class="st2" d="M196.9,66.5C130.6,45.8,65,23.7,0,0v91
		C65.2,81.4,130.8,73.3,196.9,66.5z"/>
	<path id="path10" inkscape:connector-curvature="0" class="st2" d="M1177.7,254.8c-146.5-11.4-290.8-29.7-433.1-55
		c61,20.6,122.4,39.9,184.4,58C1012.4,259.1,1095.3,258.1,1177.7,254.8z"/>
	<path id="path12" inkscape:connector-curvature="0" class="st2" d="M0,146.4c285.7,65,577.1,101.9,870.1,110.1
		c19.7,0.6,39.3,1,59,1.3c-62-18-123.5-37.3-184.5-58C559.4,167,376.5,122.5,196.9,66.5C130.8,73.3,65.2,81.4,0,91V146.4z"/>
	<path id="path14" inkscape:connector-curvature="0" class="st3" d="M1344.6,357c190.1,35.8,382.3,59.2,575.4,70.1V302.7
		C1729.6,333.1,1537.4,351.3,1344.6,357L1344.6,357z"/>
	<path id="path16" inkscape:connector-curvature="0" class="st4" d="M1920,251.5c-129,11.2-259.4,16.8-391.3,16.9
		c-262.9,0.1-525.3-22.9-784.1-68.6c196.1,66.4,396.6,118.9,600,157.2c192.8-5.7,385-23.9,575.5-54.4V251.5z"/>
</g>
</svg>
